<svg width="16" height="16" viewBox="0 0 16 16" fill="none" xmlns="http://www.w3.org/2000/svg">
<path d="M8.89999 1.6998C8.89999 1.20275 8.49704 0.799805 7.99999 0.799805C7.50293 0.799805 7.09999 1.20275 7.09999 1.6998V7.0998H1.69999C1.20293 7.0998 0.799988 7.50275 0.799988 7.9998C0.799988 8.49686 1.20293 8.8998 1.69999 8.8998L7.09999 8.89981V14.2998C7.09999 14.7969 7.50293 15.1998 7.99999 15.1998C8.49704 15.1998 8.89999 14.7969 8.89999 14.2998V8.89981H14.3C14.797 8.89981 15.2 8.49686 15.2 7.9998C15.2 7.50275 14.797 7.0998 14.3 7.0998H8.89999V1.6998Z" fill="white"/>
</svg>
